<svg width="24" height="24" viewBox="0 0 24 24" fill="none" xmlns="http://www.w3.org/2000/svg">
<path opacity="0.2" d="M15.75 6L6 15.75V6H15.75Z" fill="#BDBDBD"/>
<path d="M18.5306 17.4694L11.9353 10.875L16.2806 6.53063C16.3856 6.42573 16.4572 6.29204 16.4861 6.14648C16.5151 6.00092 16.5003 5.85002 16.4435 5.71291C16.3867 5.57579 16.2904 5.45861 16.167 5.37621C16.0435 5.29381 15.8984 5.24988 15.75 5.25H6C5.80109 5.25 5.61032 5.32902 5.46967 5.46967C5.32902 5.61032 5.25 5.80109 5.25 6V15.75C5.24988 15.8984 5.29381 16.0435 5.37621 16.167C5.45861 16.2904 5.57579 16.3867 5.71291 16.4435C5.85002 16.5003 6.00092 16.5151 6.14648 16.4861C6.29204 16.4572 6.42573 16.3856 6.53063 16.2806L10.875 11.9353L17.4694 18.5306C17.5391 18.6003 17.6218 18.6556 17.7128 18.6933C17.8039 18.731 17.9015 18.7504 18 18.7504C18.0985 18.7504 18.1961 18.731 18.2872 18.6933C18.3782 18.6556 18.4609 18.6003 18.5306 18.5306C18.6003 18.4609 18.6556 18.3782 18.6933 18.2872C18.731 18.1961 18.7504 18.0985 18.7504 18C18.7504 17.9015 18.731 17.8039 18.6933 17.7128C18.6556 17.6218 18.6003 17.5391 18.5306 17.4694ZM6.75 6.75H13.9397L10.3453 10.3444L6.75 13.9397V6.75Z" fill="#BDBDBD"/>
</svg>
