<svg width="13" height="18" viewBox="0 0 13 18" fill="none" xmlns="http://www.w3.org/2000/svg">
<g clip-path="url(#clip0_314_424)">
<path opacity="0.2" d="M11.9785 9.125C11.9785 10.6168 11.3859 12.0476 10.331 13.1025C9.2761 14.1574 7.84536 14.75 6.35352 14.75C4.86167 14.75 3.43093 14.1574 2.37604 13.1025C1.32115 12.0476 0.728516 10.6168 0.728516 9.125C0.728516 6.97555 1.74242 5.02859 2.9082 3.5L5.22852 5.75L7.07563 0.6875C8.59367 1.9475 11.9785 5.19805 11.9785 9.125Z" fill="#FADA7A"/>
<path d="M7.43492 0.254964C7.36558 0.197313 7.28339 0.157179 7.19529 0.137944C7.10719 0.11871 7.01575 0.120939 6.92869 0.144445C6.84163 0.167951 6.7615 0.212043 6.69505 0.273006C6.6286 0.333968 6.57778 0.410013 6.54688 0.49473L5 4.74231L3.30125 3.09629C3.2442 3.04096 3.17607 2.99834 3.10136 2.97125C3.02664 2.94416 2.94703 2.93322 2.86778 2.93913C2.78852 2.94504 2.71142 2.96768 2.64155 3.00556C2.57168 3.04343 2.51063 3.09569 2.46242 3.15887C0.939453 5.15434 0.166016 7.16176 0.166016 9.12489C0.166016 10.7659 0.817911 12.3397 1.97829 13.5001C3.13867 14.6605 4.71249 15.3124 6.35352 15.3124C7.99454 15.3124 9.56836 14.6605 10.7287 13.5001C11.8891 12.3397 12.541 10.7659 12.541 9.12489C12.541 4.94481 8.96984 1.53114 7.43492 0.254964ZM6.35352 14.1874C5.01131 14.1859 3.72451 13.6521 2.77543 12.703C1.82635 11.7539 1.2925 10.4671 1.29102 9.12489C1.29102 7.57801 1.85984 5.97559 2.98273 4.35489L4.83687 6.15348C4.90421 6.21888 4.98684 6.26638 5.07724 6.29166C5.16764 6.31695 5.26292 6.31921 5.35442 6.29824C5.44591 6.27727 5.5307 6.23374 5.60107 6.17161C5.67143 6.10948 5.72513 6.03074 5.75727 5.94254L7.32312 1.64856C8.89953 3.08364 11.416 5.88418 11.416 9.12489C11.4145 10.4671 10.8807 11.7539 9.9316 12.703C8.98252 13.6521 7.69572 14.1859 6.35352 14.1874Z" fill="#FADA7A"/>
</g>
<defs>
<clipPath id="clip0_314_424">
<rect width="13" height="18" fill="white"/>
</clipPath>
</defs>
</svg>
