<svg width="160" height="58" viewBox="0 0 160 58" fill="none" xmlns="http://www.w3.org/2000/svg">
<path d="M14.0673 40.464H19.2993C20.4513 40.464 21.4913 40.08 22.4193 39.312C23.3473 38.512 24.1473 37.408 24.8193 36C25.4913 34.592 26.0033 32.896 26.3553 30.912C26.7393 28.896 26.9313 26.672 26.9313 24.24C26.9313 21.808 26.7393 19.6 26.3553 17.616C26.0033 15.6 25.4913 13.888 24.8193 12.48C24.1473 11.072 23.3313 9.984 22.3713 9.216C21.4113 8.416 20.3393 8.016 19.1553 8.016H14.0673V40.464ZM3.93931 9.072C3.93931 8.464 3.74731 7.968 3.36331 7.584C2.97931 7.2 2.48331 7.008 1.87531 7.008H1.39531V6.48H18.9633C21.7153 6.48 24.1953 6.912 26.4033 7.776C28.6433 8.608 30.5473 9.808 32.1153 11.376C33.7153 12.912 34.9313 14.784 35.7633 16.992C36.6273 19.168 37.0593 21.584 37.0593 24.24C37.0593 26.896 36.6273 29.328 35.7633 31.536C34.9313 33.712 33.7313 35.584 32.1633 37.152C30.6273 38.688 28.7553 39.888 26.5473 40.752C24.3713 41.584 21.9553 42 19.2993 42H1.39531V41.472H1.87531C2.48331 41.472 2.97931 41.28 3.36331 40.896C3.74731 40.512 3.93931 40.016 3.93931 39.408L3.93931 9.072ZM42.0933 24.288C42.0933 23.68 41.9013 23.184 41.5173 22.8C41.1333 22.416 40.6373 22.224 40.0293 22.224H39.5493V21.696C40.5733 21.568 41.6293 21.344 42.7173 21.024C43.8053 20.704 44.8773 20.336 45.9333 19.92C47.0213 19.472 48.0613 18.976 49.0533 18.432C50.0453 17.856 50.9413 17.264 51.7413 16.656H52.2213V39.408C52.2213 40.016 52.4133 40.512 52.7973 40.896C53.1813 41.28 53.6933 41.472 54.3333 41.472H54.7653V42H39.5493V41.472H40.0293C40.6373 41.472 41.1333 41.28 41.5173 40.896C41.9013 40.512 42.0933 40.016 42.0933 39.408V24.288ZM47.1813 14.112C45.6453 14.112 44.4133 13.648 43.4853 12.72C42.5573 11.792 42.0933 10.56 42.0933 9.024C42.0933 7.488 42.5573 6.256 43.4853 5.328C44.4133 4.4 45.6453 3.936 47.1813 3.936C48.7173 3.936 49.9333 4.4 50.8293 5.328C51.7573 6.256 52.2213 7.488 52.2213 9.024C52.2213 10.56 51.7573 11.792 50.8293 12.72C49.9333 13.648 48.7173 14.112 47.1813 14.112ZM68.3741 33.744C70.2301 31.792 71.6381 29.744 72.5981 27.6C73.5581 25.424 73.8941 23.392 73.6061 21.504C73.4141 20.416 73.0461 19.504 72.5021 18.768C71.9581 18.032 71.3181 17.664 70.5821 17.664C70.0701 17.664 69.5901 17.888 69.1421 18.336C68.6941 18.752 68.3101 19.344 67.9901 20.112C67.6701 20.88 67.4141 21.808 67.2221 22.896C67.0621 23.952 66.9821 25.104 66.9821 26.352C66.9821 29.328 67.4461 31.792 68.3741 33.744ZM70.9661 16.128C73.1421 16.128 75.1421 16.48 76.9661 17.184C78.8221 17.856 80.1661 18.72 80.9981 19.776C81.6701 20.64 81.9261 21.584 81.7661 22.608C81.6381 23.6 81.2381 24.608 80.5661 25.632C79.8941 26.624 79.0301 27.616 77.9741 28.608C76.9501 29.568 75.8941 30.48 74.8061 31.344C73.7181 32.176 72.6621 32.928 71.6381 33.6C70.6461 34.272 69.8621 34.816 69.2861 35.232C70.7581 37.344 72.7421 38.4 75.2381 38.4C76.8701 38.4 78.3421 37.968 79.6541 37.104C80.9661 36.24 81.9261 35.088 82.5341 33.648L83.7341 34.368C82.7421 36.768 81.1741 38.736 79.0301 40.272C76.8861 41.776 74.1181 42.528 70.7261 42.528C68.6141 42.528 66.6941 42.224 64.9661 41.616C63.2701 41.008 61.8141 40.144 60.5981 39.024C59.4141 37.872 58.4861 36.512 57.8141 34.944C57.1741 33.344 56.8541 31.584 56.8541 29.664C56.8541 27.68 57.1901 25.872 57.8621 24.24C58.5661 22.576 59.5421 21.152 60.7901 19.968C62.0381 18.752 63.5261 17.808 65.2541 17.136C66.9821 16.464 68.8861 16.128 70.9661 16.128ZM97.8809 30.624C97.8809 32.96 98.2329 34.848 98.9369 36.288C99.6729 37.696 100.681 38.4 101.961 38.4C102.857 38.4 103.625 38.08 104.265 37.44C104.937 36.768 105.417 35.904 105.705 34.848L107.145 35.472C106.537 37.584 105.337 39.296 103.545 40.608C101.785 41.888 99.7049 42.528 97.3049 42.528C95.8649 42.528 94.5529 42.272 93.3689 41.76C92.2169 41.248 91.2249 40.528 90.3929 39.6C89.5609 38.64 88.9049 37.504 88.4249 36.192C87.9769 34.88 87.7529 33.424 87.7529 31.824V18.144H84.5849V16.656H85.2089C86.4889 16.656 87.7369 16.416 88.9529 15.936C90.2009 15.456 91.3529 14.768 92.4089 13.872C93.4969 12.976 94.4569 11.904 95.2889 10.656C96.1529 9.408 96.8409 8.016 97.3529 6.48H97.8809V16.656H104.793V18.144H97.8809V30.624ZM110.671 24.288C110.671 23.68 110.479 23.184 110.095 22.8C109.711 22.416 109.215 22.224 108.607 22.224H108.127V21.696C109.151 21.568 110.207 21.344 111.295 21.024C112.383 20.704 113.455 20.336 114.511 19.92C115.599 19.472 116.639 18.976 117.631 18.432C118.623 17.856 119.519 17.264 120.319 16.656H120.799V39.408C120.799 40.016 120.991 40.512 121.375 40.896C121.759 41.28 122.271 41.472 122.911 41.472H123.343V42H108.127V41.472H108.607C109.215 41.472 109.711 41.28 110.095 40.896C110.479 40.512 110.671 40.016 110.671 39.408V24.288ZM115.759 14.112C114.223 14.112 112.991 13.648 112.063 12.72C111.135 11.792 110.671 10.56 110.671 9.024C110.671 7.488 111.135 6.256 112.063 5.328C112.991 4.4 114.223 3.936 115.759 3.936C117.295 3.936 118.511 4.4 119.407 5.328C120.335 6.256 120.799 7.488 120.799 9.024C120.799 10.56 120.335 11.792 119.407 12.72C118.511 13.648 117.295 14.112 115.759 14.112ZM128.015 24.288C128.015 23.68 127.823 23.184 127.439 22.8C127.055 22.416 126.559 22.224 125.951 22.224H125.471V21.696C126.495 21.568 127.551 21.344 128.639 21.024C129.727 20.704 130.799 20.336 131.855 19.92C132.943 19.472 133.983 18.976 134.975 18.432C135.967 17.856 136.863 17.264 137.663 16.656H138.143V21.312C138.879 19.68 139.999 18.416 141.503 17.52C143.007 16.592 144.815 16.128 146.927 16.128C148.367 16.128 149.663 16.352 150.815 16.8C151.999 17.216 153.007 17.824 153.839 18.624C154.671 19.424 155.311 20.384 155.759 21.504C156.207 22.624 156.431 23.872 156.431 25.248V39.408C156.431 40.016 156.623 40.512 157.007 40.896C157.391 41.28 157.887 41.472 158.495 41.472H158.975V42H143.711V41.472H144.191C144.799 41.472 145.295 41.28 145.679 40.896C146.063 40.512 146.255 40.016 146.255 39.408V25.296C146.255 23.76 145.903 22.528 145.199 21.6C144.495 20.672 143.535 20.208 142.319 20.208C141.071 20.208 140.063 20.688 139.295 21.648C138.527 22.576 138.143 23.808 138.143 25.344V39.408C138.143 40.016 138.335 40.512 138.719 40.896C139.103 41.28 139.615 41.472 140.255 41.472H140.687V42H125.471V41.472H125.951C126.559 41.472 127.055 41.28 127.439 40.896C127.823 40.512 128.015 40.016 128.015 39.408V24.288Z" fill="#87B8B5"/>
<path d="M120.715 6.9552C122.76 10.4402 122.55 14.0762 119.061 16.1192C115.572 18.1622 112.295 16.5702 110.249 13.0842C108.555 10.1972 106.369 2.4782 109.858 0.434205C113.347 -1.6098 119.021 4.0682 120.715 6.9552Z" fill="#F5BC00"/>
<path d="M110.149 3.07813L111.867 2.05713L118.406 13.0321L116.687 14.0531L110.149 3.07813Z" fill="#FADB00"/>
</svg>
