<svg width="160" height="60" viewBox="0 0 160 60" fill="none" xmlns="http://www.w3.org/2000/svg">
<path d="M14.0673 42.464H19.2993C20.4513 42.464 21.4913 42.08 22.4193 41.312C23.3473 40.512 24.1473 39.408 24.8193 38C25.4913 36.592 26.0033 34.896 26.3553 32.912C26.7393 30.896 26.9313 28.672 26.9313 26.24C26.9313 23.808 26.7393 21.6 26.3553 19.616C26.0033 17.6 25.4913 15.888 24.8193 14.48C24.1473 13.072 23.3313 11.984 22.3713 11.216C21.4113 10.416 20.3393 10.016 19.1553 10.016H14.0673V42.464ZM3.93931 11.072C3.93931 10.464 3.74731 9.968 3.36331 9.584C2.97931 9.2 2.48331 9.008 1.87531 9.008H1.39531V8.48H18.9633C21.7153 8.48 24.1953 8.912 26.4033 9.776C28.6433 10.608 30.5473 11.808 32.1153 13.376C33.7153 14.912 34.9313 16.784 35.7633 18.992C36.6273 21.168 37.0593 23.584 37.0593 26.24C37.0593 28.896 36.6273 31.328 35.7633 33.536C34.9313 35.712 33.7313 37.584 32.1633 39.152C30.6273 40.688 28.7553 41.888 26.5473 42.752C24.3713 43.584 21.9553 44 19.2993 44H1.39531V43.472H1.87531C2.48331 43.472 2.97931 43.28 3.36331 42.896C3.74731 42.512 3.93931 42.016 3.93931 41.408L3.93931 11.072ZM42.0933 26.288C42.0933 25.68 41.9013 25.184 41.5173 24.8C41.1333 24.416 40.6373 24.224 40.0293 24.224H39.5493V23.696C40.5733 23.568 41.6293 23.344 42.7173 23.024C43.8053 22.704 44.8773 22.336 45.9333 21.92C47.0213 21.472 48.0613 20.976 49.0533 20.432C50.0453 19.856 50.9413 19.264 51.7413 18.656H52.2213V41.408C52.2213 42.016 52.4133 42.512 52.7973 42.896C53.1813 43.28 53.6933 43.472 54.3333 43.472H54.7653V44H39.5493V43.472H40.0293C40.6373 43.472 41.1333 43.28 41.5173 42.896C41.9013 42.512 42.0933 42.016 42.0933 41.408V26.288ZM47.1813 16.112C45.6453 16.112 44.4133 15.648 43.4853 14.72C42.5573 13.792 42.0933 12.56 42.0933 11.024C42.0933 9.488 42.5573 8.256 43.4853 7.328C44.4133 6.4 45.6453 5.936 47.1813 5.936C48.7173 5.936 49.9333 6.4 50.8293 7.328C51.7573 8.256 52.2213 9.488 52.2213 11.024C52.2213 12.56 51.7573 13.792 50.8293 14.72C49.9333 15.648 48.7173 16.112 47.1813 16.112ZM68.3741 35.744C70.2301 33.792 71.6381 31.744 72.5981 29.6C73.5581 27.424 73.8941 25.392 73.6061 23.504C73.4141 22.416 73.0461 21.504 72.5021 20.768C71.9581 20.032 71.3181 19.664 70.5821 19.664C70.0701 19.664 69.5901 19.888 69.1421 20.336C68.6941 20.752 68.3101 21.344 67.9901 22.112C67.6701 22.88 67.4141 23.808 67.2221 24.896C67.0621 25.952 66.9821 27.104 66.9821 28.352C66.9821 31.328 67.4461 33.792 68.3741 35.744ZM70.9661 18.128C73.1421 18.128 75.1421 18.48 76.9661 19.184C78.8221 19.856 80.1661 20.72 80.9981 21.776C81.6701 22.64 81.9261 23.584 81.7661 24.608C81.6381 25.6 81.2381 26.608 80.5661 27.632C79.8941 28.624 79.0301 29.616 77.9741 30.608C76.9501 31.568 75.8941 32.48 74.8061 33.344C73.7181 34.176 72.6621 34.928 71.6381 35.6C70.6461 36.272 69.8621 36.816 69.2861 37.232C70.7581 39.344 72.7421 40.4 75.2381 40.4C76.8701 40.4 78.3421 39.968 79.6541 39.104C80.9661 38.24 81.9261 37.088 82.5341 35.648L83.7341 36.368C82.7421 38.768 81.1741 40.736 79.0301 42.272C76.8861 43.776 74.1181 44.528 70.7261 44.528C68.6141 44.528 66.6941 44.224 64.9661 43.616C63.2701 43.008 61.8141 42.144 60.5981 41.024C59.4141 39.872 58.4861 38.512 57.8141 36.944C57.1741 35.344 56.8541 33.584 56.8541 31.664C56.8541 29.68 57.1901 27.872 57.8621 26.24C58.5661 24.576 59.5421 23.152 60.7901 21.968C62.0381 20.752 63.5261 19.808 65.2541 19.136C66.9821 18.464 68.8861 18.128 70.9661 18.128ZM97.8809 32.624C97.8809 34.96 98.2329 36.848 98.9369 38.288C99.6729 39.696 100.681 40.4 101.961 40.4C102.857 40.4 103.625 40.08 104.265 39.44C104.937 38.768 105.417 37.904 105.705 36.848L107.145 37.472C106.537 39.584 105.337 41.296 103.545 42.608C101.785 43.888 99.7049 44.528 97.3049 44.528C95.8649 44.528 94.5529 44.272 93.3689 43.76C92.2169 43.248 91.2249 42.528 90.3929 41.6C89.5609 40.64 88.9049 39.504 88.4249 38.192C87.9769 36.88 87.7529 35.424 87.7529 33.824V20.144H84.5849V18.656H85.2089C86.4889 18.656 87.7369 18.416 88.9529 17.936C90.2009 17.456 91.3529 16.768 92.4089 15.872C93.4969 14.976 94.4569 13.904 95.2889 12.656C96.1529 11.408 96.8409 10.016 97.3529 8.48H97.8809V18.656H104.793V20.144H97.8809V32.624ZM110.671 26.288C110.671 25.68 110.479 25.184 110.095 24.8C109.711 24.416 109.215 24.224 108.607 24.224H108.127V23.696C109.151 23.568 110.207 23.344 111.295 23.024C112.383 22.704 113.455 22.336 114.511 21.92C115.599 21.472 116.639 20.976 117.631 20.432C118.623 19.856 119.519 19.264 120.319 18.656H120.799V41.408C120.799 42.016 120.991 42.512 121.375 42.896C121.759 43.28 122.271 43.472 122.911 43.472H123.343V44H108.127V43.472H108.607C109.215 43.472 109.711 43.28 110.095 42.896C110.479 42.512 110.671 42.016 110.671 41.408V26.288ZM115.759 16.112C114.223 16.112 112.991 15.648 112.063 14.72C111.135 13.792 110.671 12.56 110.671 11.024C110.671 9.488 111.135 8.256 112.063 7.328C112.991 6.4 114.223 5.936 115.759 5.936C117.295 5.936 118.511 6.4 119.407 7.328C120.335 8.256 120.799 9.488 120.799 11.024C120.799 12.56 120.335 13.792 119.407 14.72C118.511 15.648 117.295 16.112 115.759 16.112ZM128.015 26.288C128.015 25.68 127.823 25.184 127.439 24.8C127.055 24.416 126.559 24.224 125.951 24.224H125.471V23.696C126.495 23.568 127.551 23.344 128.639 23.024C129.727 22.704 130.799 22.336 131.855 21.92C132.943 21.472 133.983 20.976 134.975 20.432C135.967 19.856 136.863 19.264 137.663 18.656H138.143V23.312C138.879 21.68 139.999 20.416 141.503 19.52C143.007 18.592 144.815 18.128 146.927 18.128C148.367 18.128 149.663 18.352 150.815 18.8C151.999 19.216 153.007 19.824 153.839 20.624C154.671 21.424 155.311 22.384 155.759 23.504C156.207 24.624 156.431 25.872 156.431 27.248V41.408C156.431 42.016 156.623 42.512 157.007 42.896C157.391 43.28 157.887 43.472 158.495 43.472H158.975V44H143.711V43.472H144.191C144.799 43.472 145.295 43.28 145.679 42.896C146.063 42.512 146.255 42.016 146.255 41.408V27.296C146.255 25.76 145.903 24.528 145.199 23.6C144.495 22.672 143.535 22.208 142.319 22.208C141.071 22.208 140.063 22.688 139.295 23.648C138.527 24.576 138.143 25.808 138.143 27.344V41.408C138.143 42.016 138.335 42.512 138.719 42.896C139.103 43.28 139.615 43.472 140.255 43.472H140.687V44H125.471V43.472H125.951C126.559 43.472 127.055 43.28 127.439 42.896C127.823 42.512 128.015 42.016 128.015 41.408V26.288Z" fill="white"/>
<path d="M120.715 6.9552C122.76 10.4402 122.55 14.0762 119.061 16.1192C115.572 18.1622 112.295 16.5702 110.249 13.0842C108.555 10.1972 106.369 2.4782 109.858 0.434205C113.347 -1.6098 119.021 4.0682 120.715 6.9552Z" fill="#F5BC00"/>
<path d="M110.149 3.07819L111.867 2.05719L118.406 13.0322L116.687 14.0532L110.149 3.07819Z" fill="#FADB00"/>
</svg>
