<svg width="24" height="24" viewBox="0 0 24 24" fill="none" xmlns="http://www.w3.org/2000/svg">
<path d="M6.75001 8.25V3.75C6.75001 3.55109 6.82903 3.36032 6.96968 3.21967C7.11033 3.07902 7.3011 3 7.50001 3C7.69892 3 7.88968 3.07902 8.03034 3.21967C8.17099 3.36032 8.25001 3.55109 8.25001 3.75V8.25C8.25001 8.44891 8.17099 8.63968 8.03034 8.78033C7.88968 8.92098 7.69892 9 7.50001 9C7.3011 9 7.11033 8.92098 6.96968 8.78033C6.82903 8.63968 6.75001 8.44891 6.75001 8.25ZM20.25 3.75V21C20.25 21.1989 20.171 21.3897 20.0303 21.5303C19.8897 21.671 19.6989 21.75 19.5 21.75C19.3011 21.75 19.1103 21.671 18.9697 21.5303C18.829 21.3897 18.75 21.1989 18.75 21V16.5H14.25C14.0511 16.5 13.8603 16.421 13.7197 16.2803C13.579 16.1397 13.5 15.9489 13.5 15.75C13.5348 13.9534 13.7618 12.1658 14.1769 10.4175C15.0938 6.62156 16.8319 4.07719 19.2047 3.06094C19.3187 3.01208 19.4431 2.99229 19.5667 3.00332C19.6903 3.01436 19.8092 3.05588 19.9128 3.12416C20.0164 3.19245 20.1014 3.28536 20.1603 3.39459C20.2191 3.50381 20.2499 3.62593 20.25 3.75ZM18.75 5.05312C15.7341 7.35656 15.1434 12.9675 15.0281 15H18.75V5.05312ZM11.2397 3.62719C11.225 3.52871 11.1909 3.43414 11.1392 3.34899C11.0876 3.26385 11.0196 3.18984 10.939 3.13128C10.8585 3.07271 10.7671 3.03077 10.6702 3.00789C10.5733 2.98502 10.4728 2.98167 10.3746 2.99804C10.2764 3.0144 10.1824 3.05017 10.0982 3.10324C10.0139 3.1563 9.94108 3.22562 9.8839 3.30713C9.82672 3.38865 9.78634 3.48073 9.76513 3.57801C9.74391 3.6753 9.74228 3.77583 9.76032 3.87375L10.5 8.30906C10.5 9.10471 10.1839 9.86777 9.62133 10.4304C9.05872 10.993 8.29566 11.3091 7.50001 11.3091C6.70436 11.3091 5.9413 10.993 5.37869 10.4304C4.81608 9.86777 4.50001 9.10471 4.50001 8.30906L5.23876 3.87375C5.2568 3.77583 5.25517 3.6753 5.23395 3.57801C5.21273 3.48073 5.17236 3.38865 5.11518 3.30713C5.058 3.22562 4.98516 3.1563 4.90091 3.10324C4.81666 3.05017 4.72269 3.0144 4.62448 2.99804C4.52626 2.98167 4.42577 2.98502 4.32886 3.00789C4.23196 3.03077 4.14058 3.07271 4.06005 3.13128C3.97952 3.18984 3.91147 3.26385 3.85984 3.34899C3.80822 3.43414 3.77407 3.52871 3.75938 3.62719L3.00938 8.12719C3.00297 8.16781 2.99983 8.20888 3.00001 8.25C3.00151 9.31295 3.37868 10.3412 4.06488 11.1529C4.75109 11.9647 5.70215 12.5078 6.75001 12.6863V21C6.75001 21.1989 6.82903 21.3897 6.96968 21.5303C7.11033 21.671 7.3011 21.75 7.50001 21.75C7.69892 21.75 7.88968 21.671 8.03034 21.5303C8.17099 21.3897 8.25001 21.1989 8.25001 21V12.6863C9.29787 12.5078 10.2489 11.9647 10.9351 11.1529C11.6213 10.3412 11.9985 9.31295 12 8.25C11.9999 8.20885 11.9964 8.16778 11.9897 8.12719L11.2397 3.62719Z" fill="#BDBDBD"/>
</svg>
