<svg width="16" height="16" viewBox="0 0 16 16" fill="none" xmlns="http://www.w3.org/2000/svg">
<path opacity="0.2" d="M13.8538 5.64633L12 7.50008L8.5 4.00008L10.3538 2.14633C10.4475 2.05263 10.5746 2 10.7072 2C10.8397 2 10.9669 2.05263 11.0606 2.14633L13.8538 4.93758C13.9004 4.98404 13.9375 5.03926 13.9627 5.10008C13.988 5.16089 14.001 5.2261 14.001 5.29196C14.001 5.35781 13.988 5.42302 13.9627 5.48383C13.9375 5.54465 13.9004 5.59987 13.8538 5.64633Z" fill="#BDBDBD"/>
<path d="M14.2075 4.58572L11.4144 1.79322C11.3215 1.70034 11.2113 1.62666 11.0899 1.57639C10.9686 1.52612 10.8385 1.50024 10.7072 1.50024C10.5759 1.50024 10.4458 1.52612 10.3245 1.57639C10.2031 1.62666 10.0929 1.70034 10 1.79322L2.29313 9.50009C2.19987 9.59262 2.12593 9.70275 2.0756 9.82411C2.02528 9.94546 1.99959 10.0756 2.00001 10.207V13.0001C2.00001 13.2653 2.10536 13.5197 2.2929 13.7072C2.48043 13.8947 2.73479 14.0001 3 14.0001H13.5C13.6326 14.0001 13.7598 13.9474 13.8536 13.8536C13.9473 13.7599 14 13.6327 14 13.5001C14 13.3675 13.9473 13.2403 13.8536 13.1465C13.7598 13.0528 13.6326 13.0001 13.5 13.0001H7.2075L14.2075 6.00009C14.3004 5.90723 14.3741 5.79698 14.4243 5.67564C14.4746 5.5543 14.5005 5.42425 14.5005 5.29291C14.5005 5.16156 14.4746 5.03151 14.4243 4.91017C14.3741 4.78883 14.3004 4.67858 14.2075 4.58572ZM3 10.207L8.5 4.70697L11.2931 7.50009L5.79313 13.0001H3V10.207ZM12 6.79322L9.20751 4.00009L10.7075 2.50009L13.5 5.29322L12 6.79322Z" fill="#BDBDBD"/>
</svg>
