<svg width="12" height="12" viewBox="0 0 12 12" fill="none" xmlns="http://www.w3.org/2000/svg">
<path opacity="0.2" d="M3.75 4.875V9.75H1.5C1.40054 9.75 1.30516 9.71049 1.23483 9.64017C1.16451 9.56984 1.125 9.47446 1.125 9.375V5.25C1.125 5.15054 1.16451 5.05516 1.23483 4.98484C1.30516 4.91451 1.40054 4.875 1.5 4.875H3.75Z" fill="white"/>
<path d="M10.9688 3.75563C10.8632 3.63596 10.7333 3.54014 10.5878 3.47452C10.4424 3.40889 10.2846 3.37497 10.125 3.375H7.5V2.625C7.5 2.12772 7.30246 1.65081 6.95083 1.29917C6.59919 0.947544 6.12228 0.75 5.625 0.75C5.55533 0.74995 5.48703 0.769308 5.42775 0.805904C5.36847 0.842499 5.32055 0.894885 5.28937 0.957188L3.51844 4.5H1.5C1.30109 4.5 1.11032 4.57902 0.96967 4.71967C0.829018 4.86032 0.75 5.05109 0.75 5.25V9.375C0.75 9.57391 0.829018 9.76468 0.96967 9.90533C1.11032 10.046 1.30109 10.125 1.5 10.125H9.5625C9.83658 10.1251 10.1013 10.0251 10.3069 9.84388C10.5125 9.66263 10.6448 9.41256 10.6791 9.14062L11.2416 4.64062C11.2615 4.4822 11.2475 4.32134 11.2004 4.16875C11.1534 4.01616 11.0744 3.87533 10.9688 3.75563ZM1.5 5.25H3.375V9.375H1.5V5.25ZM10.4972 4.54688L9.93469 9.04688C9.92327 9.13752 9.87915 9.22088 9.81062 9.28129C9.74209 9.34171 9.65386 9.37503 9.5625 9.375H4.125V4.96359L5.84578 1.52156C6.10082 1.57261 6.3303 1.71045 6.49516 1.91163C6.66002 2.11281 6.75007 2.3649 6.75 2.625V3.75C6.75 3.84946 6.78951 3.94484 6.85983 4.01516C6.93016 4.08549 7.02554 4.125 7.125 4.125H10.125C10.1782 4.12498 10.2308 4.13629 10.2793 4.15817C10.3278 4.18005 10.3711 4.21201 10.4063 4.25191C10.4415 4.29182 10.4678 4.33876 10.4835 4.38961C10.4992 4.44047 10.5038 4.49408 10.4972 4.54688Z" fill="white"/>
</svg>
