<svg width="32" height="32" viewBox="0 0 32 32" fill="none" xmlns="http://www.w3.org/2000/svg">
<path d="M32 1.33333V8C32 8.35362 31.8595 8.69276 31.6095 8.94281C31.3594 9.19286 31.0203 9.33333 30.6667 9.33333C30.313 9.33333 29.9739 9.19286 29.7239 8.94281C29.4738 8.69276 29.3333 8.35362 29.3333 8V2.66667H24C23.6464 2.66667 23.3072 2.52619 23.0572 2.27614C22.8071 2.02609 22.6667 1.68696 22.6667 1.33333C22.6667 0.979711 22.8071 0.640573 23.0572 0.390525C23.3072 0.140476 23.6464 0 24 0H30.6667C31.0203 0 31.3594 0.140476 31.6095 0.390525C31.8595 0.640573 32 0.979711 32 1.33333ZM8 29.3333H2.66667V24C2.66667 23.6464 2.52619 23.3072 2.27614 23.0572C2.02609 22.8071 1.68696 22.6667 1.33333 22.6667C0.979711 22.6667 0.640573 22.8071 0.390525 23.0572C0.140476 23.3072 0 23.6464 0 24V30.6667C0 31.0203 0.140476 31.3594 0.390525 31.6095C0.640573 31.8595 0.979711 32 1.33333 32H8C8.35362 32 8.69276 31.8595 8.94281 31.6095C9.19286 31.3594 9.33333 31.0203 9.33333 30.6667C9.33333 30.313 9.19286 29.9739 8.94281 29.7239C8.69276 29.4738 8.35362 29.3333 8 29.3333ZM30.6667 22.6667C30.313 22.6667 29.9739 22.8071 29.7239 23.0572C29.4738 23.3072 29.3333 23.6464 29.3333 24V29.3333H24C23.6464 29.3333 23.3072 29.4738 23.0572 29.7239C22.8071 29.9739 22.6667 30.313 22.6667 30.6667C22.6667 31.0203 22.8071 31.3594 23.0572 31.6095C23.3072 31.8595 23.6464 32 24 32H30.6667C31.0203 32 31.3594 31.8595 31.6095 31.6095C31.8595 31.3594 32 31.0203 32 30.6667V24C32 23.6464 31.8595 23.3072 31.6095 23.0572C31.3594 22.8071 31.0203 22.6667 30.6667 22.6667ZM1.33333 9.33333C1.68696 9.33333 2.02609 9.19286 2.27614 8.94281C2.52619 8.69276 2.66667 8.35362 2.66667 8V2.66667H8C8.35362 2.66667 8.69276 2.52619 8.94281 2.27614C9.19286 2.02609 9.33333 1.68696 9.33333 1.33333C9.33333 0.979711 9.19286 0.640573 8.94281 0.390525C8.69276 0.140476 8.35362 0 8 0H1.33333C0.979711 0 0.640573 0.140476 0.390525 0.390525C0.140476 0.640573 0 0.979711 0 1.33333V8C0 8.35362 0.140476 8.69276 0.390525 8.94281C0.640573 9.19286 0.979711 9.33333 1.33333 9.33333ZM8 6.66667H24C24.3536 6.66667 24.6928 6.80714 24.9428 7.05719C25.1929 7.30724 25.3333 7.64638 25.3333 8V24C25.3333 24.3536 25.1929 24.6928 24.9428 24.9428C24.6928 25.1929 24.3536 25.3333 24 25.3333H8C7.64638 25.3333 7.30724 25.1929 7.05719 24.9428C6.80714 24.6928 6.66667 24.3536 6.66667 24V8C6.66667 7.64638 6.80714 7.30724 7.05719 7.05719C7.30724 6.80714 7.64638 6.66667 8 6.66667ZM9.33333 22.6667H22.6667V9.33333H9.33333V22.6667Z" fill="white"/>
</svg>
