<svg width="24" height="24" viewBox="0 0 24 24" fill="none" xmlns="http://www.w3.org/2000/svg">
<path opacity="0.2" d="M18 13.4999C18.0007 14.0058 17.9377 14.5098 17.8125 14.9999H6.1875C5.97649 14.1757 5.94315 13.3161 6.08972 12.4781C6.23628 11.6401 6.55938 10.8428 7.03759 10.1391C7.51579 9.4355 8.13817 8.84161 8.86342 8.39686C9.58866 7.95212 10.4002 7.66669 11.2442 7.55952C12.0882 7.45235 12.9453 7.52588 13.7587 7.77524C14.572 8.02461 15.3231 8.44409 15.962 9.00587C16.6009 9.56765 17.113 10.2589 17.4644 11.0337C17.8157 11.8085 17.9983 12.6492 18 13.4999Z" fill="#FD9409"/>
<path d="M22.5 14.25H18.7078C18.7355 14.0009 18.7496 13.7506 18.75 13.5C18.75 11.7098 18.0388 9.99289 16.773 8.72702C15.5071 7.46115 13.7902 6.74999 12 6.74999C10.2098 6.74999 8.4929 7.46115 7.22703 8.72702C5.96116 9.99289 5.25 11.7098 5.25 13.5C5.25042 13.7506 5.26451 14.0009 5.29219 14.25H1.5C1.30109 14.25 1.11032 14.329 0.96967 14.4697C0.829018 14.6103 0.75 14.8011 0.75 15C0.75 15.1989 0.829018 15.3897 0.96967 15.5303C1.11032 15.671 1.30109 15.75 1.5 15.75H22.5C22.6989 15.75 22.8897 15.671 23.0303 15.5303C23.171 15.3897 23.25 15.1989 23.25 15C23.25 14.8011 23.171 14.6103 23.0303 14.4697C22.8897 14.329 22.6989 14.25 22.5 14.25ZM6.75 13.5C6.74862 12.778 6.89617 12.0635 7.18341 11.4012C7.47066 10.7388 7.89143 10.1428 8.41943 9.65044C8.94743 9.15805 9.57131 8.77985 10.2521 8.53949C10.9329 8.29912 11.6559 8.20175 12.376 8.25346C13.0961 8.30517 13.7978 8.50485 14.4373 8.84001C15.0767 9.17518 15.6402 9.63863 16.0924 10.2014C16.5446 10.7642 16.8759 11.4142 17.0656 12.1108C17.2553 12.8074 17.2992 13.5356 17.1947 14.25H6.80531C6.76901 14.0016 6.75053 13.751 6.75 13.5ZM20.25 18.75C20.25 18.9489 20.171 19.1397 20.0303 19.2803C19.8897 19.421 19.6989 19.5 19.5 19.5H4.5C4.30109 19.5 4.11032 19.421 3.96967 19.2803C3.82902 19.1397 3.75 18.9489 3.75 18.75C3.75 18.5511 3.82902 18.3603 3.96967 18.2197C4.11032 18.079 4.30109 18 4.5 18H19.5C19.6989 18 19.8897 18.079 20.0303 18.2197C20.171 18.3603 20.25 18.5511 20.25 18.75ZM6.82875 4.08562C6.73974 3.90759 6.72509 3.7015 6.78803 3.51267C6.85097 3.32384 6.98635 3.16776 7.16437 3.07874C7.3424 2.98973 7.5485 2.97508 7.73732 3.03802C7.92615 3.10097 8.08224 3.23634 8.17125 3.41437L8.92125 4.91437C8.96533 5.00252 8.99161 5.09849 8.99859 5.19679C9.00558 5.2951 8.99313 5.39382 8.96197 5.48732C8.9308 5.58081 8.88153 5.66726 8.81695 5.74171C8.75238 5.81616 8.67378 5.87717 8.58563 5.92124C8.49748 5.96532 8.40151 5.9916 8.3032 5.99859C8.20489 6.00557 8.10617 5.99313 8.01268 5.96196C7.91918 5.9308 7.83274 5.88152 7.75828 5.81695C7.68383 5.75237 7.62282 5.67377 7.57875 5.58562L6.82875 4.08562ZM1.57875 8.66437C1.62286 8.57625 1.6839 8.4977 1.75838 8.43318C1.83286 8.36867 1.91933 8.31947 2.01284 8.28839C2.10634 8.25731 2.20506 8.24495 2.30334 8.25204C2.40162 8.25912 2.49754 8.28551 2.58562 8.32968L4.08563 9.07968C4.26353 9.16869 4.39878 9.32473 4.46164 9.51347C4.52449 9.70221 4.50979 9.90818 4.42078 10.0861C4.33177 10.264 4.17573 10.3992 3.98699 10.4621C3.79825 10.525 3.59228 10.5103 3.41437 10.4212L1.91438 9.67124C1.82618 9.62722 1.74753 9.56624 1.68292 9.49179C1.61831 9.41734 1.56901 9.33089 1.53784 9.23738C1.50667 9.14386 1.49424 9.04512 1.50126 8.9468C1.50828 8.84848 1.53461 8.7525 1.57875 8.66437ZM19.5788 10.0856C19.4899 9.90771 19.4753 9.7018 19.5383 9.51316C19.6012 9.32452 19.7365 9.1686 19.9144 9.07968L21.4144 8.32968C21.5025 8.2856 21.5984 8.25931 21.6966 8.2523C21.7949 8.24529 21.8935 8.2577 21.987 8.28882C22.0804 8.31995 22.1669 8.36917 22.2413 8.43369C22.3157 8.4982 22.3767 8.57675 22.4208 8.66484C22.4649 8.75292 22.4911 8.84883 22.4982 8.94708C22.5052 9.04533 22.4928 9.144 22.4616 9.23745C22.4305 9.33091 22.3813 9.41731 22.3168 9.49174C22.2523 9.56617 22.1737 9.62717 22.0856 9.67124L20.5856 10.4212C20.4975 10.4654 20.4015 10.4917 20.3032 10.4987C20.2049 10.5058 20.1061 10.4933 20.0126 10.4621C19.9191 10.431 19.8326 10.3817 19.7582 10.3171C19.6838 10.2525 19.6228 10.1738 19.5788 10.0856ZM15.0787 4.91437L15.8287 3.41437C15.9178 3.23634 16.0739 3.10097 16.2627 3.03802C16.4515 2.97508 16.6576 2.98973 16.8356 3.07874C17.0137 3.16776 17.149 3.32384 17.212 3.51267C17.2749 3.7015 17.2603 3.90759 17.1712 4.08562L16.4213 5.58562C16.3322 5.76364 16.1761 5.89902 15.9873 5.96196C15.7985 6.0249 15.5924 6.01026 15.4144 5.92124C15.2363 5.83223 15.101 5.67614 15.038 5.48732C14.9751 5.29849 14.9897 5.09239 15.0787 4.91437Z" fill="#FD9409"/>
</svg>
